<svg xmlns="http://www.w3.org/2000/svg" width="14" height="14" fill="none"><path fill="#131313" d="M7 10.5a3.5 3.5 0 1 1 0-7 3.5 3.5 0 0 1 0 7Zm0-1.167a2.333 2.333 0 1 0 0-4.666 2.333 2.333 0 0 0 0 4.666Zm-.583-8.166h1.166v1.75H6.417v-1.75Zm-5.25 5.25h1.75v1.166h-1.75V6.416Zm9.916 0h1.75v1.166h-1.75V6.416Zm-4.666 4.666h1.166v1.75H6.417v-1.75Zm4.445-8.75.826.825-1.238 1.238-.825-.826 1.237-1.237Zm-1.237 7.825.825-.825 1.238 1.237-.826.826-1.237-1.238Zm-6.054-.825.825.825-1.238 1.238-.825-.826 1.238-1.237ZM2.333 3.158l.825-.825L4.396 3.57l-.826.826-1.237-1.238Z"/><circle cx="7" cy="7" r="2.5" fill="#131313" stroke="#131313"/></svg>